<?xml version="1.0" encoding="utf-8"?>
<!-- Generator: Adobe Illustrator 27.5.0, SVG Export Plug-In . SVG Version: 6.00 Build 0)  -->
<svg version="1.1" xmlns="http://www.w3.org/2000/svg" xmlns:xlink="http://www.w3.org/1999/xlink" x="0px" y="0px"
	 viewBox="0 0 500 500" style="enable-background:new 0 0 500 500;" xml:space="preserve">
<g id="BACKGROUND">
	<rect style="fill:#FFFFFF;" width="500" height="500"/>
</g>
<g id="OBJECTS">
	<g>
		<path style="fill:#7B2317;" d="M79.821,67.563c0-8.115,6.573-14.689,14.689-14.689c8.116,0,14.697,6.573,14.697,14.689
			c0,0.084,0,0.168-0.008,0.252h10.895v-0.252c0-14.132-11.452-25.583-25.583-25.583c-14.132,0-25.583,11.452-25.583,25.583v0.252
			h10.902C79.821,67.731,79.821,67.648,79.821,67.563z"/>
		<path style="fill:#7B2317;" d="M131.8,80.286h-0.166V67.817H55.529v12.486c-13.818,0.359-24.908,11.661-24.908,25.566
			s11.09,25.207,24.908,25.566v12.487h13.397v0.252c0,14.132,11.452,25.583,25.583,25.583c14.132,0,25.583-11.452,25.583-25.583
			v-0.252h11.541v-12.47h0.166c14.131,0,25.583-11.452,25.583-25.583C157.383,91.738,145.931,80.286,131.8,80.286z M55.529,120.524
			c-7.799-0.355-14.014-6.767-14.014-14.655s6.214-14.307,14.014-14.663V120.524z M98.775,77.183h6.472v6.472h-6.472V77.183z
			 M98.775,85.694h6.472v6.471h-6.472V85.694z M98.775,94.205h6.472v6.471h-6.472V94.205z M98.775,111.063h6.472v6.471h-6.472
			V111.063z M98.775,119.574h6.472v6.471h-6.472V119.574z M98.775,128.085h6.472v6.471h-6.472V128.085z M81.916,77.183h6.471v6.472
			h-6.471V77.183z M81.916,85.694h6.471v6.471h-6.471V85.694z M81.916,94.205h6.471v6.471h-6.471V94.205z M81.916,111.063h6.471
			v6.471h-6.471V111.063z M81.916,119.574h6.471v6.471h-6.471V119.574z M81.916,128.085h6.471v6.471h-6.471V128.085z M73.405,77.183
			h6.471v6.472h-6.471V77.183z M73.405,85.694h6.471v6.471h-6.471V85.694z M73.405,94.205h6.471v6.471h-6.471V94.205z
			 M73.405,111.063h6.471v6.471h-6.471V111.063z M73.405,119.574h6.471v6.471h-6.471V119.574z M71.366,134.557h-6.471v-6.471h6.471
			V134.557z M71.366,126.046h-6.471v-6.471h6.471V126.046z M71.366,117.535h-6.471v-6.471h6.471V117.535z M71.366,100.676h-6.471
			v-6.471h6.471V100.676z M71.366,92.165h-6.471v-6.471h6.471V92.165z M71.366,83.655h-6.471v-6.472h6.471V83.655z M73.405,134.557
			v-6.471h6.471v6.471H73.405z M94.509,158.863c-8.115,0-14.689-6.574-14.689-14.689c0-0.084,0-0.168,0.008-0.252h29.37
			c0.008,0.084,0.008,0.168,0.008,0.252C109.206,152.29,102.625,158.863,94.509,158.863z M113.758,134.557h-6.471v-6.471h6.471
			V134.557z M113.758,126.046h-6.471v-6.471h6.471V126.046z M113.758,117.535h-6.471v-6.471h6.471V117.535z M113.758,100.676h-6.471
			v-6.471h6.471V100.676z M113.758,92.165h-6.471v-6.471h6.471V92.165z M113.758,83.655h-6.471v-6.472h6.471V83.655z
			 M122.269,134.557h-6.472v-6.471h6.472V134.557z M122.269,126.046h-6.472v-6.471h6.472V126.046z M122.269,117.535h-6.472v-6.471
			h6.472V117.535z M122.269,100.676h-6.472v-6.471h6.472V100.676z M122.269,92.165h-6.472v-6.471h6.472V92.165z M122.269,83.655
			h-6.472v-6.472h6.472V83.655z M131.8,120.558c-0.055,0-0.11-0.003-0.166-0.005V91.178c0.055-0.002,0.11-0.005,0.166-0.005
			c8.115,0,14.689,6.581,14.689,14.697S139.915,120.558,131.8,120.558z"/>
	</g>
	<g>
		<path style="fill:#DB7D3E;" d="M256.638,56.871c-0.73-0.066-1.467-0.105-2.214-0.105c-13.958,0-25.174,11.751-24.295,25.898
			c0.753,12.122,10.619,21.988,22.741,22.741c14.147,0.879,25.898-10.338,25.898-24.295c0,0,4.007,6.773,4.007,11.293l6.866-8.853
			c0,0,3.071,6.681,2.167,11.739c0,0,3.975-4.693,5.058-9.033c0,0,4.878,4.519,3.071,16.802l0.229-0.283
			c-3.236,14.202-12.705,26.029-25.377,32.456l9.447,18.411h12.751v3.568l-10.026,0.361l7.587,7.588l-3.139,3.139l-9.71-9.71
			l-6.684,6.684l-2.343-2.253l7.065-7.065l-9.584-18.678c-5.367,2.047-11.187,3.177-17.274,3.177c-6.093,0-11.918-1.133-17.29-3.183
			L226,155.952l7.065,7.065l-2.343,2.253l-6.684-6.684l-9.71,9.71l-3.139-3.139l7.587-7.588l-10.026-0.361v-3.568h12.751
			l9.456-18.428c-15.775-8.006-26.589-24.37-26.586-43.27c0.003-26.847,22.281-48.833,49.126-48.497
			c6.959,0.087,13.564,1.64,19.522,4.364c4.05,1.892,7.54,4.288,10.26,6.823c4.193,3.908,6.368,9.517,6.034,15.239l0,0l-7.413-4.298
			l-0.457,7.897C281.442,73.471,268.147,71.806,256.638,56.871z"/>
		<path style="fill:#DB7D3E;" d="M291.112,75.405c0,2.003-1.624,3.626-3.626,3.626c-2.003,0-3.626-1.623-3.626-3.626
			c0-2.003,1.623-3.626,3.626-3.626C289.488,71.779,291.112,73.402,291.112,75.405z"/>
	</g>
	<path style="fill:#7B2317;" d="M314.064,248.264c-9.13-5.261-16.737-12.863-21.994-21.994l-1.842-3.196l-0.01-0.018
		c-1.446-2.51-3.529-4.593-6.037-6.04l-0.015-0.008l-3.196-1.842c-9.13-5.257-16.737-12.863-21.994-21.99l-6.62-11.497l-6.62,11.497
		c-5.261,9.126-12.863,16.733-21.994,21.99l-3.2,1.842l-0.02,0.011c-2.508,1.448-4.59,3.532-6.035,6.042l-0.007,0.013l-1.842,3.196
		c-5.257,9.13-12.863,16.733-21.99,21.994l-11.497,6.62l11.497,6.62c9.126,5.257,16.733,12.863,21.99,21.994l1.842,3.196
		l0.002,0.003c1.449,2.516,3.537,4.604,6.053,6.053l0.011,0.006l3.196,1.842c9.13,5.257,16.733,12.863,21.994,21.994l6.62,11.492
		l6.62-11.492c5.257-9.13,12.863-16.737,21.994-21.994l3.196-1.842h0c2.521-1.45,4.612-3.541,6.062-6.062l0,0l1.842-3.196
		c5.257-9.13,12.863-16.737,21.994-21.994l11.492-6.62L314.064,248.264z M252.355,201.988L252.355,201.988L252.355,201.988
		c5.424,9.417,13.241,17.234,22.658,22.658c-9.417,5.424-17.234,13.241-22.658,22.658l0,0l0,0
		c-5.424-9.417-13.241-17.234-22.658-22.658C239.114,219.221,246.931,211.405,252.355,201.988z M222.118,277.541L222.118,277.541
		L222.118,277.541c-5.424-9.417-13.241-17.234-22.658-22.658l0,0c9.417-5.424,17.234-13.241,22.658-22.658l0,0
		c5.424,9.417,13.241,17.234,22.658,22.658l0,0l0,0C235.359,260.307,227.542,268.124,222.118,277.541z M275.013,285.12
		c-9.417,5.424-17.234,13.241-22.658,22.658l0,0c-5.424-9.417-13.241-17.234-22.658-22.658l0,0l0,0
		c9.417-5.424,17.234-13.241,22.658-22.658l0,0l0,0C257.779,271.879,265.596,279.695,275.013,285.12L275.013,285.12z
		 M305.25,254.883c-9.417,5.424-17.234,13.241-22.658,22.658c-5.424-9.417-13.241-17.234-22.658-22.658l0,0l0,0
		c9.417-5.424,17.234-13.241,22.658-22.658C288.016,241.642,295.833,249.458,305.25,254.883L305.25,254.883L305.25,254.883z"/>
	<g>
		<path style="fill:#DB7D3E;" d="M94.51,218.48c-20.14,0-36.46,16.32-36.46,36.46c0,20.13,16.32,36.45,36.46,36.45
			c20.13,0,36.46-16.32,36.46-36.45C130.97,234.8,114.64,218.48,94.51,218.48z M94.51,264.61c-5.35,0-9.68-4.33-9.68-9.68
			c0-5.34,4.33-9.68,9.68-9.68s9.68,4.34,9.68,9.68C104.19,260.28,99.86,264.61,94.51,264.61z"/>
		<path style="fill:#DB7D3E;" d="M94.509,213.344c1.842-1.556,5.584-5.215,5.584-9.266c0-5.28-2.557-9.741-5.584-9.741
			c-3.027,0-5.584,4.461-5.584,9.741C88.925,208.129,92.667,211.788,94.509,213.344z"/>
		<path style="fill:#DB7D3E;" d="M80.303,215.849c1.199-2.092,3.464-6.811,2.078-10.617c-1.806-4.962-5.735-8.279-8.579-7.243
			c-2.844,1.035-3.721,6.101-1.916,11.063C73.272,212.859,78.04,215.017,80.303,215.849z"/>
		<path style="fill:#DB7D3E;" d="M67.809,223.062c0.411-2.376,0.925-7.585-1.678-10.688c-3.394-4.045-8.22-5.818-10.539-3.872
			c-2.319,1.946-1.41,7.006,1.984,11.051C60.18,222.657,65.398,223.055,67.809,223.062z"/>
		<path style="fill:#DB7D3E;" d="M47.72,234.316c3.508,2.026,8.548,0.615,10.817-0.203c-0.426-2.373-1.725-7.444-5.233-9.469
			c-4.572-2.64-9.714-2.656-11.228-0.034C40.563,227.231,43.147,231.676,47.72,234.316z"/>
		<path style="fill:#DB7D3E;" d="M43.508,251.559c3.99,0.703,8.243-2.346,10.095-3.89c-1.212-2.085-4.166-6.405-8.156-7.109
			c-5.2-0.917-10.037,0.827-10.562,3.808C34.359,247.349,38.308,250.642,43.508,251.559z"/>
		<path style="fill:#DB7D3E;" d="M45.447,269.203c3.99-0.703,6.944-5.024,8.156-7.108c-1.852-1.544-6.106-4.594-10.095-3.891
			c-5.2,0.917-9.148,4.21-8.623,7.191C35.41,268.376,40.247,270.12,45.447,269.203z"/>
		<path style="fill:#DB7D3E;" d="M58.537,275.651c-2.269-0.818-7.309-2.228-10.817-0.203c-4.573,2.64-7.157,7.085-5.643,9.706
			c1.513,2.621,6.655,2.605,11.228-0.034C56.812,283.094,58.11,278.024,58.537,275.651z"/>
		<path style="fill:#DB7D3E;" d="M57.576,290.211c-3.394,4.045-4.302,9.105-1.983,11.051c2.319,1.945,7.145,0.172,10.539-3.872
			c2.604-3.103,2.09-8.312,1.679-10.688C65.398,286.709,60.179,287.108,57.576,290.211z"/>
		<path style="fill:#DB7D3E;" d="M71.886,300.712c-1.806,4.961-0.928,10.028,1.916,11.063c2.844,1.035,6.773-2.282,8.579-7.243
			c1.386-3.807-0.879-8.525-2.078-10.617C78.04,294.746,73.272,296.906,71.886,300.712z"/>
		<path style="fill:#DB7D3E;" d="M94.51,296.42c-1.842,1.556-5.584,5.215-5.584,9.266c0,5.28,2.557,9.741,5.584,9.741
			c3.027,0,5.584-4.461,5.584-9.741C100.094,301.635,96.352,297.975,94.51,296.42z"/>
		<path style="fill:#DB7D3E;" d="M108.716,293.915c-1.199,2.092-3.464,6.811-2.078,10.617c1.806,4.961,5.735,8.279,8.579,7.243
			c2.844-1.035,3.721-6.101,1.916-11.063C115.747,296.905,110.979,294.746,108.716,293.915z"/>
		<path style="fill:#DB7D3E;" d="M121.21,286.702c-0.411,2.376-0.925,7.585,1.678,10.688c3.394,4.045,8.22,5.818,10.539,3.872
			c2.319-1.945,1.41-7.006-1.984-11.051C128.839,287.107,123.621,286.709,121.21,286.702z"/>
		<path style="fill:#DB7D3E;" d="M141.299,275.448c-3.508-2.026-8.548-0.615-10.817,0.203c0.426,2.373,1.725,7.444,5.232,9.469
			c4.573,2.64,9.714,2.656,11.228,0.034C148.456,282.533,145.871,278.088,141.299,275.448z"/>
		<path style="fill:#DB7D3E;" d="M145.511,258.205c-3.99-0.704-8.243,2.346-10.095,3.89c1.212,2.085,4.167,6.405,8.156,7.109
			c5.2,0.917,10.037-0.827,10.562-3.808C154.66,262.414,150.711,259.121,145.511,258.205z"/>
		<path style="fill:#DB7D3E;" d="M143.572,240.561c-3.99,0.703-6.943,5.024-8.156,7.108c1.852,1.544,6.106,4.594,10.095,3.891
			c5.2-0.917,9.148-4.21,8.623-7.191C153.608,241.388,148.771,239.644,143.572,240.561z"/>
		<path style="fill:#DB7D3E;" d="M130.482,234.113c2.268,0.818,7.309,2.229,10.817,0.203c4.572-2.64,7.157-7.085,5.643-9.706
			c-1.513-2.621-6.655-2.605-11.227,0.035C132.206,226.67,130.908,231.74,130.482,234.113z"/>
		<path style="fill:#DB7D3E;" d="M131.443,219.553c3.394-4.045,4.302-9.105,1.983-11.051c-2.318-1.946-7.145-0.172-10.539,3.872
			c-2.604,3.103-2.09,8.312-1.679,10.688C123.621,223.055,128.84,222.656,131.443,219.553z"/>
		<path style="fill:#DB7D3E;" d="M117.133,209.052c1.806-4.962,0.928-10.028-1.916-11.063c-2.844-1.035-6.773,2.282-8.579,7.243
			c-1.386,3.807,0.879,8.525,2.078,10.617C110.979,215.017,115.747,212.858,117.133,209.052z"/>
	</g>
	<g>
		<path style="fill:#7B2317;" d="M459.585,59.124v-7.888h-41.674v33.796h-9.015V51.236h-7.888v33.796h-9.005V51.236h-41.684v7.888
			h33.796v9.918h-33.796v7.888h33.796v8.102h-33.796v41.674h33.796v9.063h-33.796v7.888h33.796v8.957h-33.796v7.888h41.684v-33.796
			h9.005v33.796h7.888v-33.796h9.015v33.796h41.674v-7.888h-33.786v-8.957h33.786v-7.888h-33.786v-9.063h33.786V85.032h-33.786
			V76.93h33.786v-7.888h-33.786v-9.918H459.585z M367.212,118.818h-9.005V92.92h9.005V118.818z M384.115,118.818H375.1V92.92h9.015
			V118.818z M417.911,118.818h-25.908v-9.005h25.908V118.818z M417.911,101.925h-25.908V92.92h25.908V101.925z M442.683,92.92h9.015
			v25.898h-9.015V92.92z M434.804,92.92v25.898h-9.005V92.92H434.804z"/>
		<path style="fill:#7B2317;" d="M419.854,158.559v-33.796h-12.9v33.796h-4.002v-33.796H390.06v33.796h-37.797v-4.002h33.795
			v-12.842h-33.795v-4.002h33.795v-12.949h-33.795V86.975h33.795V74.988h-33.795v-4.002h33.795V57.181h-33.795v-4.002h37.797v33.796
			h12.891V53.179h4.002v33.796h12.9V53.179h37.789v4.002h-33.786v13.804h33.786v4.002h-33.786v11.987h33.786v37.788h-33.786v12.949
			h33.786v4.002h-33.786v12.842h33.786v4.002H419.854z M440.739,120.761h12.901V90.977h-12.901V120.761z M423.856,120.761h12.891
			V90.977h-12.891V120.761z M390.06,120.761h29.794V107.87H390.06V120.761z M373.158,120.761h12.9V90.977h-12.9V120.761z
			 M356.264,120.761h12.891V90.977h-12.891V120.761z M390.06,103.868h29.794V90.977H390.06V103.868z"/>
	</g>
	<g>
		<polygon style="fill:#7B2317;" points="92.048,342.707 82.115,342.707 66.471,358.356 50.822,342.707 40.89,342.707 
			66.471,368.283 		"/>
		<polygon style="fill:#7B2317;" points="72.343,342.707 60.595,342.707 66.471,348.578 		"/>
		<polygon style="fill:#7B2317;" points="148.135,342.707 138.203,342.707 122.559,358.356 106.91,342.707 96.977,342.707 
			122.559,368.283 		"/>
		<polygon style="fill:#7B2317;" points="128.43,342.707 116.682,342.707 122.559,348.578 		"/>
		<path style="fill:#7B2317;" d="M94.515,396.327l25.576-25.581l-25.576-25.577l-25.581,25.577L94.515,396.327z M110.164,370.746
			l-15.649,15.649l-15.649-15.649l15.649-15.644L110.164,370.746z"/>
		
			<rect x="90.362" y="366.594" transform="matrix(0.7068 -0.7074 0.7074 0.7068 -234.5564 175.559)" style="fill:#7B2317;" width="8.305" height="8.305"/>
		<path style="fill:#7B2317;" d="M122.555,424.367l25.576-25.576l-25.576-25.582l-25.581,25.582L122.555,424.367z M138.199,398.791
			l-15.644,15.649l-15.649-15.649l15.649-15.649L138.199,398.791z"/>
		
			<rect x="118.402" y="394.638" transform="matrix(0.7071 -0.7071 0.7071 0.7071 -246.0909 203.4589)" style="fill:#7B2317;" width="8.305" height="8.305"/>
		<polygon style="fill:#7B2317;" points="150.597,452.409 150.597,442.476 134.95,426.83 150.597,411.189 150.597,401.256 
			125.018,426.83 		"/>
		<polygon style="fill:#7B2317;" points="150.597,432.704 150.597,420.961 144.728,426.83 		"/>
		<polygon style="fill:#7B2317;" points="125.018,370.742 150.597,396.321 150.597,386.388 134.95,370.742 150.597,355.101 
			150.597,345.168 		"/>
		<polygon style="fill:#7B2317;" points="150.597,376.616 150.597,364.873 144.728,370.742 		"/>
		<path style="fill:#7B2317;" d="M40.885,398.817l25.581,25.576l25.576-25.576l-25.576-25.581L40.885,398.817z M66.466,414.465
			l-15.649-15.649l15.649-15.649l15.644,15.649L66.466,414.465z"/>
		
			<rect x="62.312" y="394.664" transform="matrix(0.7068 -0.7074 0.7074 0.7068 -262.6408 163.9512)" style="fill:#7B2317;" width="8.305" height="8.305"/>
		<polygon style="fill:#7B2317;" points="38.422,401.279 38.422,411.211 54.071,426.855 38.422,442.504 38.422,452.437 
			63.999,426.855 		"/>
		<polygon style="fill:#7B2317;" points="38.422,420.984 38.422,432.732 44.294,426.855 		"/>
		<polygon style="fill:#7B2317;" points="38.422,345.191 38.422,355.124 54.071,370.768 38.422,386.417 38.422,396.349 
			63.999,370.768 		"/>
		<polygon style="fill:#7B2317;" points="38.422,364.896 38.422,376.644 44.294,370.768 		"/>
		<polygon style="fill:#7B2317;" points="40.355,455.41 50.288,455.41 65.935,439.762 81.578,455.41 91.51,455.41 65.935,429.83 		
			"/>
		<polygon style="fill:#7B2317;" points="60.06,455.41 71.805,455.41 65.935,449.54 		"/>
		<polygon style="fill:#7B2317;" points="96.443,455.41 106.375,455.41 122.023,439.762 137.666,455.41 147.598,455.41 
			122.023,429.83 		"/>
		<polygon style="fill:#7B2317;" points="116.148,455.41 127.893,455.41 122.023,449.54 		"/>
		<path style="fill:#7B2317;" d="M93.979,401.786l-25.581,25.576l25.581,25.581l25.576-25.581L93.979,401.786z M78.33,427.362
			l15.649-15.644l15.649,15.644l-15.649,15.649L78.33,427.362z"/>
		
			<rect x="89.826" y="423.211" transform="matrix(0.7071 -0.7071 0.7071 0.7071 -274.6659 191.6252)" style="fill:#7B2317;" width="8.305" height="8.305"/>
	</g>
	<path style="fill:#7B2317;" d="M436.473,404.398l28.563,1.305v-13.31l-28.563,1.305c-9.772,0.435-19.313-4.611-23.546-13.455
		c-2.726-5.626-3.277-12.237-0.638-18.385c3.654-9.627,14.499-15.775,24.619-13.542c16.413,2.929,22.503,25.316,8.38,35.059
		c-8.351,6.206-21.69,2.987-25.576-6.872c-4.466-9.54,3.509-21.952,14.267-20.618c4.988,0.435,9.569,4.089,10.845,8.96
		c2.407,7.337-4.698,15.746-12.324,13.252c-4.321-1.102-6.235-5.394-5.626-8.931c0.464,2.146,2.146,3.857,4.263,4.379
		c2.204,0.667,4.698,0.406,7.163-3.103c0.609-0.87,1.015-1.885,1.015-2.929c0-3.074-2.233-5.655-5.133-6.205v-0.029
		c-0.116-0.029-0.232,0-0.348,0c-0.29-0.058-0.58-0.087-0.841-0.087v0.058c-11.686-0.145-12.498,16.732-1.45,19.922
		c10.062,3.422,19.719-7.51,16.645-17.254c-3.625-13.919-22.85-15.659-30.361-4.06c-12.498,19.428,11.831,39.901,30.013,27.229
		c17.718-12.092,10.613-39.727-9.859-43.758c-17.312-4.002-32.797,10.613-33.029,27.113c-0.232-16.5-15.717-31.115-33.029-27.113
		c-20.473,4.031-27.577,31.666-9.859,43.758c18.182,12.672,42.511-7.801,30.013-27.229c-7.511-11.599-26.736-9.859-30.361,4.06
		c-3.074,9.743,6.582,20.676,16.645,17.254c11.048-3.19,10.236-20.067-1.45-19.922v-0.058c-0.261,0-0.551,0.029-0.841,0.087
		c-0.116,0-0.232-0.029-0.348,0v0.029c-2.9,0.551-5.132,3.132-5.132,6.205c0,1.044,0.406,2.059,1.015,2.929
		c2.465,3.509,4.959,3.77,7.162,3.103c2.117-0.522,3.799-2.233,4.263-4.379c0.609,3.538-1.305,7.829-5.626,8.931
		c-7.626,2.494-14.731-5.916-12.324-13.252c1.276-4.872,5.858-8.525,10.845-8.96c10.758-1.334,18.733,11.077,14.267,20.618
		c-3.886,9.859-17.225,13.078-25.576,6.872c-14.122-9.743-8.033-32.13,8.38-35.059c10.12-2.233,20.966,3.915,24.619,13.542
		c2.639,6.148,2.088,12.759-0.638,18.385c-4.234,8.844-13.774,13.89-23.546,13.455l-28.563-1.305v13.31l28.563-1.305
		c9.772-0.435,19.313,4.611,23.546,13.455c2.726,5.655,3.277,12.266,0.638,18.414c-3.654,9.598-14.499,15.746-24.619,13.513
		c-16.413-2.929-22.503-25.286-8.38-35.059c8.351-6.206,21.69-2.958,25.576,6.872c4.466,9.569-3.509,21.981-14.267,20.618
		c-4.988-0.435-9.569-4.089-10.845-8.931c-2.407-7.366,4.698-15.746,12.324-13.281c4.321,1.102,6.235,5.394,5.626,8.931
		c-0.464-2.146-2.146-3.828-4.263-4.35c-2.204-0.696-4.698-0.406-7.162,3.074c-0.609,0.87-1.015,1.885-1.015,2.958
		c0,3.074,2.233,5.626,5.132,6.206v0.029c0.116,0,0.232-0.029,0.348,0c0.29,0.029,0.58,0.087,0.841,0.087v-0.087
		c11.686,0.145,12.498-16.703,1.45-19.893c-10.063-3.451-19.719,7.481-16.645,17.225c3.625,13.948,22.85,15.659,30.361,4.06
		c12.498-19.429-11.831-39.901-30.013-27.229c-17.718,12.092-10.613,39.757,9.859,43.787c17.312,3.973,32.797-10.613,33.029-27.142
		c0.232,16.529,15.717,31.115,33.029,27.142c20.473-4.031,27.577-31.695,9.859-43.787c-18.182-12.672-42.511,7.801-30.013,27.229
		c7.511,11.599,26.736,9.888,30.361-4.06c3.074-9.743-6.583-20.676-16.645-17.225c-11.048,3.19-10.236,20.038,1.45,19.893v0.087
		c0.261,0,0.551-0.058,0.841-0.087c0.116-0.029,0.232,0,0.348,0v-0.029c2.9-0.58,5.133-3.132,5.133-6.206
		c0-1.073-0.406-2.088-1.015-2.958c-2.465-3.48-4.959-3.77-7.163-3.074c-2.117,0.522-3.799,2.204-4.263,4.35
		c-0.609-3.538,1.305-7.829,5.626-8.931c7.627-2.465,14.731,5.915,12.324,13.281c-1.276,4.843-5.858,8.496-10.845,8.931
		c-10.758,1.363-18.733-11.048-14.267-20.618c3.886-9.83,17.225-13.078,25.576-6.872c14.122,9.772,8.033,32.13-8.38,35.059
		c-10.12,2.233-20.966-3.915-24.619-13.513c-2.639-6.148-2.088-12.759,0.638-18.414
		C417.161,409.008,426.701,403.963,436.473,404.398z M404.952,406.74c-4.243,0-7.682-3.439-7.682-7.682
		c0-4.243,3.439-7.682,7.682-7.682c4.243,0,7.682,3.439,7.682,7.682C412.634,403.301,409.195,406.74,404.952,406.74z"/>
	<path style="fill:#DB7D3E;" d="M459.693,208.967c-6.462-6.453-14.918-9.684-23.392-9.684c-8.465,0-16.93,3.231-23.392,9.684
		l-7.957,7.957l-7.957-7.957c-6.462-6.453-14.918-9.684-23.392-9.684c-8.465,0-16.93,3.231-23.391,9.684
		c-12.915,12.915-12.915,33.859,0,46.774l7.966,7.966l46.774,46.774l46.783-46.774l7.957-7.966
		C472.608,242.826,472.608,221.882,459.693,208.967z M356.506,249.447c-9.425-9.425-9.425-24.761,0-34.186
		c4.568-4.563,10.642-7.077,17.098-7.077c6.455,0,12.529,2.515,17.103,7.082v0c6.663,6.663,10.407,15.701,10.407,25.124v1.498
		h-7.646l7.646,7.646v3.018l-9.155-9.155v22.971l9.155-9.155v3.018l-7.646,7.646h7.646v26.178L356.506,249.447z M453.399,249.447
		l-7.96,7.971l-36.647,36.639v-26.18h7.646l-7.646-7.646v-3.018l9.155,9.155v-22.971l-9.155,9.155v-3.018l7.646-7.646h-7.646v-1.498
		c0-9.424,3.744-18.461,10.407-25.125l0.004-0.004c4.569-4.563,10.642-7.077,17.098-7.077c6.456,0,12.53,2.515,17.102,7.082
		C462.824,224.686,462.824,240.022,453.399,249.447z"/>
	<g>
		<path style="fill:#DB7D3E;" d="M316.905,371.955c-2.38-3.34-7.07-4.07-10.52-1.85l-0.23,0.14c-4.01,2.58-4.92,7.77-1.94,11.49
			c0.05,0.07,0.11,0.14,0.17,0.21c2.17,2.76-1.45,6.36-4.18,4.14c-11.24-9.14-27.76-19.16-46.19-19.16
			c-5.466,0-10.764,0.88-15.806,2.357c-7.681,2.249-12.707-8.104-6.157-12.703c9.447-6.632,20.954-10.524,33.373-10.524
			c6.77,0,13.27,1.17,19.33,3.31c-8.78-4.68-18.8-7.34-29.43-7.34c-33.26,0-60.47,25.9-62.52,58.62c-0.1,0.1-0.14,0.16-0.14,0.16
			s0.04,0.04,0.11,0.13c0.02,0.03,0.05,0.07,0.08,0.1l-0.27-0.1c0,0-8.97,18.5-1.8,28.9c2.37,3.45,7.13,4.29,10.65,2.03l0.23-0.15
			c3.91-2.5,4.84-7.86,1.94-11.48c-0.06-0.08-0.12-0.15-0.18-0.23c-2.33-2.96,1.56-6.78,4.48-4.4c0.19,0.15,0.39,0.31,0.59,0.47
			c11.23,8.98,27.45,18.61,45.52,18.61c9.16,0,16.965-1.827,23.303-4.267c5.494-2.115,9.853,4.9,5.636,9.007
			c-10.477,10.204-24.784,16.49-40.559,16.49c-6.77,0-13.27-1.17-19.33-3.31c8.78,4.68,18.79,7.34,29.43,7.34
			c33.25,0,60.46-25.9,62.52-58.63c0-0.04,0.01-0.08,0.01-0.12c0.07-0.08,0.11-0.13,0.16-0.18l0.04,0.01c0,0,0.04-0.06,0.09-0.17
			c0.01-0.02,0.04-0.05,0.04-0.05l-0.01-0.02C316.365,398.585,323.825,381.635,316.905,371.955z M253.91,417.022
			c-23.455,0-42.47-16.037-42.47-16.037s19.014-16.037,42.47-16.037s42.47,16.037,42.47,16.037S277.366,417.022,253.91,417.022z"/>
		<circle style="fill:#DB7D3E;" cx="254.043" cy="400.366" r="8.958"/>
	</g>
</g>
</svg>
